<?xml version="1.0" encoding="iso-8859-1"?>
<!-- Generator: Adobe Illustrator 19.0.0, SVG Export Plug-In . SVG Version: 6.00 Build 0)  -->
<svg version="1.1" id="Layer_1" xmlns="http://www.w3.org/2000/svg" xmlns:xlink="http://www.w3.org/1999/xlink" x="0px" y="0px"
	 viewBox="0 0 496 496" style="enable-background:new 0 0 496 496;" xml:space="preserve">
<g>
	<g>
		<g>
			<path d="M367.953,240c-5.8,0-11.472,0.52-17.072,1.272c11.144-22.84,17.072-47.832,17.072-73.272c0-92.632-75.368-168-168-168
				s-168,75.368-168,168s75.368,168,168,168c15.608,0,30.984-2.232,45.944-6.52c-1.784,5.632-3.064,11.472-4.056,17.416
				c-61.768,14.36-127.224-4-172-48.784c-71.736-71.744-71.736-188.48,0-260.216l-11.312-11.32
				c-77.976,77.976-77.976,204.864,0,282.84c31.952,31.952,73.6,51.536,117.424,56.84V448h-72v48h192v-22.256
				c20.528,14.024,45.32,22.256,72,22.256c70.576,0,128-57.424,128-128S438.529,240,367.953,240z M199.953,320
				c-83.816,0-152-68.184-152-152c0-10.984,1.232-21.672,3.456-32h44.544v4.688l-16,16V208h51.72l48,72h56.4l43.88-61.44V168
				h-35.056l-12.944-25.888V84.16L186.761,48h-34.808v16h29.192l34.808,27.84v54.048L235.009,184h28.944v29.44L227.833,264h-39.6
				l-48-72h-44.28v-28.688l16-16V120H55.841c7.056-21.12,18.624-40.136,33.56-56h46.552V48h-28.952
				c25.728-19.976,57.928-32,92.952-32c39.464,0,75.344,15.24,102.392,39.992L291.673,72h-33.488l-10.232,30.704v22.24l48,24V176h32
				v-16h-16v-20.944l-48-24v-9.76L269.721,88h30.512l13.576-20.36c22,24.92,35.888,57.04,37.736,92.36h-7.592v16h7.72
				c-1.304,24.52-8.6,48.384-21.312,69.656c-33.24,10.232-60.656,33.712-76.288,64.2C236.641,316.512,218.465,320,199.953,320z
				 M223.953,366.312c5.424-0.648,10.832-1.528,16.216-2.632c-0.048,1.448-0.216,2.864-0.216,4.32c0,30.264,10.616,58.064,28.24,80
				h-44.24V366.312z M191.953,367.584c2.72,0.112,5.448,0.2,8.176,0.2c2.6,0,5.216-0.144,7.824-0.248V448h-16V367.584z M279.953,480
				h-160v-16h160V480z M452.497,441.232l-11.008-11.008l-11.312,11.312l11.008,11.008C421.529,469.6,395.961,480,367.953,480
				c-27.408,0-52.512-9.928-72-26.336v-2.352l9.776-9.776l-11.312-11.312l-11.008,11.008
				c-17.056-19.656-27.456-45.224-27.456-73.232s10.4-53.576,27.456-73.232l11.008,11.008l11.312-11.312l-11.008-11.008
				C314.377,266.4,339.945,256,367.953,256s53.576,10.4,73.232,27.456l-11.008,11.008l11.312,11.312l11.008-11.008
				c17.056,19.656,27.456,45.224,27.456,73.232S469.553,421.576,452.497,441.232z"/>
			<path d="M383.017,280h-30.128l-8.28,66.264c-5.328,5.712-8.656,13.32-8.656,21.736c0,8.416,3.328,16.024,8.656,21.736
				l8.28,66.264h30.128l8.28-66.264c5.328-5.712,8.656-13.32,8.656-21.736c0-8.416-3.328-16.024-8.656-21.736L383.017,280z
				 M367.017,296h1.872l5.08,40.608c-1.952-0.376-3.96-0.608-6.016-0.608c-2.056,0-4.064,0.232-6.016,0.608L367.017,296z
				 M368.889,440h-1.872l-5.08-40.608c1.952,0.376,3.96,0.608,6.016,0.608c2.056,0,4.064-0.232,6.016-0.608L368.889,440z
				 M367.953,384c-8.824,0-16-7.176-16-16c0-8.824,7.176-16,16-16c8.824,0,16,7.176,16,16C383.953,376.824,376.777,384,367.953,384z
				"/>
		</g>
	</g>
</g>
<g>
</g>
<g>
</g>
<g>
</g>
<g>
</g>
<g>
</g>
<g>
</g>
<g>
</g>
<g>
</g>
<g>
</g>
<g>
</g>
<g>
</g>
<g>
</g>
<g>
</g>
<g>
</g>
<g>
</g>
</svg>
