<?xml version="1.0" encoding="iso-8859-1"?>
<!-- Generator: Adobe Illustrator 19.0.0, SVG Export Plug-In . SVG Version: 6.00 Build 0)  -->
<svg version="1.1" id="Layer_1" xmlns="http://www.w3.org/2000/svg" xmlns:xlink="http://www.w3.org/1999/xlink" x="0px" y="0px"
	 viewBox="0 0 512 512" style="enable-background:new 0 0 512 512;" xml:space="preserve">
<path style="fill:#FF9900;" d="M447.352,165.345c0,58.055-22.612,112.64-63.655,153.694
	c-32.214,32.214-72.119,52.161-113.852,59.894v64.063h-33.008v-60.51c-2.278,0.073-4.577,0.125-6.855,0.125
	c-55.672,0-111.323-21.18-153.704-63.572l-11.63-11.619l36.153-36.164l9.895-9.895c0.282,0.366,0.575,0.721,0.867,1.076
	c3.187,3.856,6.562,7.586,10.146,11.17c3.594,3.594,7.314,6.969,11.18,10.146c0.355,0.293,0.711,0.585,1.066,0.857l-9.895,9.895
	l-12.392,12.403c35.976,30.104,80.802,44.335,125.168,42.705c44.931-1.661,89.381-19.602,123.601-53.823
	c68.023-68.012,71.722-176.368,11.107-248.769l-22.309,22.309c-0.282-0.355-0.564-0.711-0.857-1.066
	c-3.156-3.866-6.531-7.586-10.136-11.191c-3.594-3.594-7.325-6.969-11.17-10.136c-0.355-0.293-0.721-0.585-1.076-0.867l9.906-9.895
	L372.067,0l11.63,11.63C424.741,52.684,447.352,107.28,447.352,165.345z"/>
<rect x="186.305" y="442.995" style="fill:#EBD9C0;" width="134.196" height="52.558"/>
<rect x="236.837" y="442.995" style="fill:#EBCEA5;" width="83.675" height="52.558"/>
<path style="fill:#FF8800;" d="M447.352,165.345c0,58.055-22.612,112.64-63.655,153.694
	c-32.214,32.214-72.119,52.161-113.852,59.894v64.063h-33.008v-93.383c44.931-1.661,89.381-19.602,123.601-53.823
	c68.023-68.012,71.722-176.368,11.107-248.769l-22.309,22.309c-0.282-0.355-0.564-0.711-0.857-1.066
	c-3.156-3.866-6.531-7.586-10.136-11.191c-3.594-3.594-7.325-6.969-11.17-10.136c-0.355-0.293-0.721-0.585-1.076-0.867l9.906-9.895
	L372.067,0l11.63,11.63C424.741,52.684,447.352,107.28,447.352,165.345z"/>
<path style="fill:#006659;" d="M169.872,426.557V512h167.072v-85.443H169.872z M304.06,479.116H202.756v-19.675H304.06V479.116z"/>
<polygon style="fill:#005349;" points="336.943,426.557 336.943,512 236.834,512 236.834,479.116 304.06,479.116 304.06,459.441 
	236.834,459.441 236.834,426.557 "/>
<path style="fill:#00DDC0;" d="M348.375,68.259c-3.156-3.859-6.531-7.586-10.128-11.184c-3.598-3.597-7.325-6.974-11.173-10.139
	c-26.416-21.693-58.439-33.198-90.813-34.515c-41.278-1.678-83.107,13.203-114.547,44.653
	c-28.919,28.92-44.845,67.362-44.845,108.268c0,35.831,12.228,69.784,34.696,97.094c3.186,3.859,6.561,7.586,10.149,11.173
	c3.587,3.587,7.315,6.963,11.173,10.139c27.31,22.478,61.262,34.705,97.093,34.705c2.1,0,4.19-0.041,6.28-0.121
	c38.534-1.547,74.556-17.292,101.987-44.724C394.344,217.502,397.721,128.336,348.375,68.259z"/>
<path style="fill:#00AC93;" d="M348.375,68.259c-3.156-3.859-6.531-7.586-10.128-11.184c-3.598-3.597-7.325-6.974-11.173-10.139
	c-26.416-21.693-58.439-33.198-90.813-34.515v15.021v15.143v245.563v15.082v15.102c38.534-1.547,74.556-17.292,101.987-44.724
	C394.344,217.502,397.721,128.336,348.375,68.259z"/>
<g>
</g>
<g>
</g>
<g>
</g>
<g>
</g>
<g>
</g>
<g>
</g>
<g>
</g>
<g>
</g>
<g>
</g>
<g>
</g>
<g>
</g>
<g>
</g>
<g>
</g>
<g>
</g>
<g>
</g>
</svg>
