<?xml version="1.0" encoding="iso-8859-1"?>
<!-- Generator: Adobe Illustrator 19.0.0, SVG Export Plug-In . SVG Version: 6.00 Build 0)  -->
<svg version="1.1" id="Layer_1" xmlns="http://www.w3.org/2000/svg" xmlns:xlink="http://www.w3.org/1999/xlink" x="0px" y="0px"
	 viewBox="0 0 459.99 459.99" style="enable-background:new 0 0 459.99 459.99;" xml:space="preserve">
<g id="XMLID_1124_">
	<path id="XMLID_1125_" style="fill:#1D54BD;" d="M195.821,457.45l261.63-261.63c0.054,0.36,0.115,0.73,0.171,1.092
		C441.578,85.566,345.789,0,230.001,0c-127.026,0-230,102.974-230,230c0,116.074,85.99,212.048,197.738,227.737
		C197.098,457.641,196.45,457.544,195.821,457.45z"/>
	<path id="XMLID_1126_" style="fill:#071E61;" d="M99.186,360.815l96.635,96.635c69.662,10.412,143.185-11.186,196.814-64.815
		s75.227-127.152,64.815-196.814l-96.635-96.635L99.186,360.815z"/>
	<path id="XMLID_1127_" style="fill:#7BE3FF;" d="M177.674,52.502c-25.706,7.566-49.099,20.572-68.829,37.684
		c0,0-32.542,36.819-32.548,36.813C56.532,156.44,45.001,191.876,45.001,230c0,33.974,9.152,65.813,25.141,93.174
		c0,0,103.859,83.186,103.859,83.195c17.668,5.606,36.482,8.63,56,8.63V79.355L177.674,52.502z"/>
	<path id="XMLID_1128_" style="fill:#48D9FF;" d="M406.486,285.631L347.254,86.902c-18.879-15.494-40.894-27.324-64.926-34.401
		c0,0-25.687,26.853-52.327,26.853V415c27.047,0,52.725-5.8,75.887-16.225c0,0,60.081-43.317,60.086-43.313
		C384.221,335.689,398.215,311.934,406.486,285.631z"/>
	<path id="XMLID_1129_" style="fill:#FFFFFF;" d="M282.326,52.503c-3.644,25.638-25.685,45.355-52.325,45.355
		S181.32,78.14,177.676,52.503c16.59-4.88,34.153-7.503,52.325-7.503S265.737,47.623,282.326,52.503z"/>
	<rect id="XMLID_1130_" x="250.001" y="140.722" style="fill:#487ED2;" width="20" height="25"/>
	<path id="XMLID_1131_" style="fill:#73A7E6;" d="M110.205,257.366c-2.252,0-4.459,0.187-6.608,0.544v-20.743c10.216,0,20,0,20,0
		v-26.398h27.822v20h20v-20h0.118v-78.908c8.196-3.035,14.041-10.922,14.041-20.177c0-11.868-9.62-21.497-21.498-21.497
		c0,0-36.939,0-55.227-0.004c-17.296,15-31.77,33.161-42.548,53.576v76.107c0,9.554,7.737,17.301,17.292,17.301v30.319
		c-8.251,7.335-13.455,18.027-13.455,29.934v25.755c22.903,39.201,59.809,69.223,103.862,83.189V347.08h4.424
		c12.318-2.586,21.573-13.508,21.573-26.594c0-14.997,0-63.12,0-63.12S132.331,257.366,110.205,257.366z"/>
	<path id="XMLID_1132_" style="fill:#487ED2;" d="M347.259,86.907l0.285,22.654h-37.363v20h18.737v17.063h-22.852
		c-8.833,1.489-16.065,10.05-16.065,19.015v20.083h-40v46.17c0,0,2.449,0,16.875,0c12.196,0,22.434-8.346,25.319-19.643h31.538
		c5.63,12.617,18.275,21.423,32.982,21.423v17.278h-94.332c-17.879,0-32.382,14.489-32.382,32.368v20
		c0,17.879,14.503,32.382,32.382,32.382h6.131v50.24c0,8.672,2.3,16.684,6.314,23.579c35.564-8.852,67.055-27.991,91.137-54.08
		v-69.808h40.519c5.529-17.559,8.517-36.245,8.517-55.631C415.001,172.334,388.613,120.835,347.259,86.907z"/>
</g>
<g>
</g>
<g>
</g>
<g>
</g>
<g>
</g>
<g>
</g>
<g>
</g>
<g>
</g>
<g>
</g>
<g>
</g>
<g>
</g>
<g>
</g>
<g>
</g>
<g>
</g>
<g>
</g>
<g>
</g>
</svg>
