<?xml version="1.0" encoding="iso-8859-1"?>
<!-- Generator: Adobe Illustrator 19.0.0, SVG Export Plug-In . SVG Version: 6.00 Build 0)  -->
<svg version="1.1" id="Layer_1" xmlns="http://www.w3.org/2000/svg" xmlns:xlink="http://www.w3.org/1999/xlink" x="0px" y="0px"
	 viewBox="0 0 511.999 511.999" style="enable-background:new 0 0 511.999 511.999;" xml:space="preserve">
<rect x="181.828" y="403.818" width="148.334" height="16"/>
<polygon points="166.04,500.056 149.496,500.056 188.168,352.687 203.648,356.751 "/>
<polygon points="345.96,500.056 362.504,500.056 323.832,352.687 308.352,356.751 "/>
<rect x="31.388" y="15.943" width="449.213" height="350.637"/>
<path style="fill:#666666;" d="M484.609,370.584H27.392V11.943h457.216v358.64H484.609z M35.392,362.583h441.216V19.943H35.392
	V362.583z"/>
<rect y="11.959" style="fill:#E21B1B;" width="511.999" height="32"/>
<g style="opacity:0.2;">
	<polygon style="fill:#FFFFFF;" points="35.432,140.591 35.432,43.959 132.065,43.959 	"/>
</g>
<g>
	<path style="fill:#FFFFFF;" d="M133.208,243.807h-15.712v-59.201c-5.813,5.411-12.745,9.478-20.304,11.912v-14.28
		c4.857-1.766,9.377-4.348,13.368-7.632c4.495-3.327,7.932-7.884,9.896-13.12h12.752V243.807z"/>
	<path style="fill:#FFFFFF;" d="M178.048,232.007v-21.304h-21.472V195.99h21.48v-21.296h14.312v21.296h21.528v14.712H192.36v21.304
		H178.048z"/>
	<path style="fill:#FFFFFF;" d="M276.632,229.216v14.592h-55.08c0.61-5.561,2.444-10.919,5.368-15.688
		c5.036-7.27,10.974-13.872,17.672-19.648c4.7-4.107,9.051-8.597,13.008-13.424c2.012-2.806,3.14-6.149,3.24-9.6
		c0.194-2.966-0.828-5.884-2.832-8.08c-4.528-3.816-11.163-3.758-15.624,0.136c-2.242,2.783-3.432,6.267-3.36,9.84l-15.656-1.6
		c0.205-7.164,3.396-13.916,8.8-18.624c5.343-3.901,11.845-5.891,18.456-5.648c6.966-0.397,13.811,1.953,19.064,6.544
		c4.545,4.174,7.073,10.103,6.936,16.272c0.014,3.606-0.66,7.181-1.984,10.536c-1.588,3.777-3.705,7.307-6.288,10.488
		c-3.173,3.728-6.612,7.223-10.288,10.456c-4.96,4.549-8.101,7.57-9.424,9.064c-1.21,1.343-2.281,2.803-3.2,4.36L276.632,229.216z"
		/>
	<path style="fill:#FFFFFF;" d="M287.136,198.183v-14.4h57.32v14.4H287.136z M287.136,222.983v-14.48h57.32v14.48H287.136z"/>
	<path style="fill:#FFFFFF;" d="M353.6,222.055l15.2-1.84c0.236,3.326,1.618,6.468,3.912,8.888c2.056,2.021,4.839,3.129,7.72,3.072
		c3.14,0.045,6.139-1.306,8.184-3.688c2.33-2.776,3.519-6.333,3.328-9.952c0.181-3.428-0.964-6.794-3.2-9.4
		c-1.962-2.235-4.802-3.5-7.776-3.464c-2.441,0.068-4.863,0.46-7.2,1.168l1.736-12.8c3.476,0.343,6.953-0.647,9.728-2.768
		c2.24-1.963,3.474-4.832,3.36-7.808c0.333-4.667-3.181-8.72-7.848-9.053c-0.386-0.027-0.774-0.028-1.16-0.003
		c-2.577-0.042-5.058,0.969-6.872,2.8c-2.069,2.239-3.295,5.126-3.472,8.168l-14.488-2.464c0.718-4.223,2.268-8.261,4.56-11.88
		c2.141-3.055,5.076-5.466,8.488-6.976c3.828-1.742,7.995-2.616,12.2-2.56c6.958-0.303,13.712,2.384,18.56,7.384
		c7.451,7.141,7.703,18.971,0.562,26.423c-1.856,1.938-4.108,3.452-6.602,4.442c4.437,0.853,8.427,3.252,11.264,6.768
		c2.848,3.608,4.339,8.101,4.216,12.696c0.098,6.973-2.766,13.66-7.88,18.4c-10.691,9.664-26.806,10.169-38.081,1.192
		C357.172,234.516,354.148,228.516,353.6,222.055z"/>
</g>
<g>
</g>
<g>
</g>
<g>
</g>
<g>
</g>
<g>
</g>
<g>
</g>
<g>
</g>
<g>
</g>
<g>
</g>
<g>
</g>
<g>
</g>
<g>
</g>
<g>
</g>
<g>
</g>
<g>
</g>
</svg>
